<svg xmlns="http://www.w3.org/2000/svg" width="760" height="751" viewBox="0 0 760 751"><g stroke="#FFDFCD" fill="none" fill-rule="evenodd"><path d="M379.97 111.77l155 50.36L630.77 294v162.97l-95.8 131.85-155 50.37-155-50.37-95.8-131.85V294l95.8-131.86 155-50.36z"></path><path d="M275.75 71.75l192.86 4.64 158.77 118.9 64.02 187.74L636.2 567.9 482.92 679.26l-192.86-4.64-158.78-118.9-64.01-187.74 55.18-184.86 153.3-111.37z"></path><path d="M396.25 74.07L562.69 146l96.5 159.52-10.32 186.15L535.7 633.34l-172.8 43.09-166.43-71.95-96.5-159.52 10.31-186.15 113.18-141.66 172.8-43.08z"></path><circle cx="379.97" cy="375.47" r="263.73"></circle></g></svg>